<?xml version="1.0" encoding="utf-8"?>
<!-- Generator: Adobe Illustrator 27.4.0, SVG Export Plug-In . SVG Version: 6.00 Build 0)  -->
<!DOCTYPE svg PUBLIC "-//W3C//DTD SVG 1.1//EN" "http://www.w3.org/Graphics/SVG/1.1/DTD/svg11.dtd" [
	<!ENTITY ns_extend "http://ns.adobe.com/Extensibility/1.0/">
	<!ENTITY ns_ai "http://ns.adobe.com/AdobeIllustrator/10.0/">
	<!ENTITY ns_graphs "http://ns.adobe.com/Graphs/1.0/">
	<!ENTITY ns_vars "http://ns.adobe.com/Variables/1.0/">
	<!ENTITY ns_imrep "http://ns.adobe.com/ImageReplacement/1.0/">
	<!ENTITY ns_sfw "http://ns.adobe.com/SaveForWeb/1.0/">
	<!ENTITY ns_custom "http://ns.adobe.com/GenericCustomNamespace/1.0/">
	<!ENTITY ns_adobe_xpath "http://ns.adobe.com/XPath/1.0/">
]>
<svg version="1.1" xmlns:x="&ns_extend;" xmlns:i="&ns_ai;" xmlns:graph="&ns_graphs;"
	 xmlns="http://www.w3.org/2000/svg" xmlns:xlink="http://www.w3.org/1999/xlink" x="0px" y="0px" viewBox="0 0 1296 400"
	 style="enable-background:new 0 0 1296 400;" xml:space="preserve">
<style type="text/css">
	.st0{display:none;}
	.st1{display:inline;}
	.st2{clip-path:url(#SVGID_00000178918620806511685190000017079543953552588929_);}
	.st3{fill:#FFBD59;}
	.st4{fill:#FFFFFF;}
	.st5{fill:#E57310;}
	.st6{display:inline;fill:#E57310;}
</style>
<metadata>
	<sfw  xmlns="&ns_sfw;">
		<slices></slices>
		<sliceSourceBounds  bottomLeftOrigin="true" height="348.2" width="1271.1" x="-417.8" y="31.9"></sliceSourceBounds>
	</sfw>
</metadata>
<g id="Layer_1" class="st0">
	<g class="st1">
		<defs>
			<rect id="SVGID_1_" x="520.4" y="19.8" width="219" height="253"/>
		</defs>
		<clipPath id="SVGID_00000085224172526609825940000016422982236408071043_">
			<use xlink:href="#SVGID_1_"  style="overflow:visible;"/>
		</clipPath>
		<g style="clip-path:url(#SVGID_00000085224172526609825940000016422982236408071043_);">
			<path class="st3" d="M636,23.4l103.3,59.7v14.1l-6.1,3.5v0.1l-41.4,23.9v57.4l-49.7,28.7v26.6l30.2-17.4h0.1l42.4-24.5v-55.7
				l24.6-14.2v84.1l-54.8,31.6v0.1l-54.8,31.6l-12.3-7.1v-54.9l-12.3-7.1l24.5-14.2l37.3-21.6v-43.2l-18.7-10.8l-18.7-10.8
				l-37.3,21.6v43.2l12.8,7.4v28.4l-37.5-21.6v-57.4L545,111.4v84.1l42.4,24.5h0.1l5.7,3.3v28.4l-18-10.4v-0.1l-54.8-31.6V83.1
				l12.3-7.1l6.1,3.5l41.5,23.9l49.7-28.7l6.2,3.5l43.5,25.2l23-13.3l-30.2-17.5l-42.4-24.5L581.7,76l-24.5-14.2l72.7-42L636,23.4z
				 M608.2,139.2c2,0,3.7,0.8,5,2.1c1.3,1.3,2.1,3.1,2.1,5.1c0,1.9-0.8,3.7-2.1,5c-1.3,1.3-3.1,2.1-5,2.1c-2,0-3.8-0.8-5.1-2.1
				c-1.3-1.3-2.1-3.1-2.1-5c0-2,0.8-3.8,2.1-5.1C604.4,140,606.2,139.2,608.2,139.2z M651.6,139.2c2,0,3.7,0.8,5,2.1
				c1.3,1.3,2.1,3.1,2.1,5.1c0,1.9-0.8,3.7-2.1,5c-1.3,1.3-3.1,2.1-5,2.1c-2,0-3.8-0.8-5.1-2.1c-1.2-1.3-2.1-3.1-2.1-5
				c0-2,0.8-3.8,2.1-5C647.8,140,649.7,139.2,651.6,139.2z M629.9,139.2c2,0,3.7,0.8,5,2.1c1.3,1.3,2.1,3.1,2.1,5.1
				c0,1.9-0.8,3.7-2.1,5c-1.3,1.3-3.1,2.1-5,2.1c-2,0-3.7-0.8-5-2.1c-1.3-1.3-2.1-3.1-2.1-5c0-2,0.8-3.8,2.1-5.1
				C626.1,140,627.9,139.2,629.9,139.2z"/>
		</g>
	</g>
	<g class="st1">
		<g transform="translate(64.181251, 272.884708)">
			<g>
				<path class="st4" d="M491.4,91l-2.7-10.4h-18L467.9,91h-16.5l18.1-55.7h20L507.8,91H491.4z M485.6,68.3l-2.4-9.1
					c-0.6-2-1.2-4.6-2-7.9c-0.8-3.2-1.3-5.5-1.6-6.9c-0.2,1.3-0.7,3.4-1.4,6.4c-0.7,3-2.1,8.8-4.4,17.5H485.6z"/>
			</g>
		</g>
	</g>
	<g class="st1">
		<g transform="translate(106.465995, 272.884708)">
			<g>
				<path class="st4" d="M496.5,47.3c1.3,0,2.5,0.1,3.7,0.3l0.8,0.2l-1.3,14c-1.2-0.3-2.9-0.5-5-0.5c-3.2,0-5.6,0.7-7.1,2.2
					c-1.5,1.5-2.2,3.6-2.2,6.4V91h-14.8V48h11l2.3,6.9h0.7c1.2-2.3,3-4.1,5.2-5.5C492.1,48,494.3,47.3,496.5,47.3z"/>
			</g>
		</g>
	</g>
	<g class="st1">
		<g transform="translate(133.793257, 272.884708)">
			<g>
				<path class="st4" d="M480.6,35.5h19.3c7.5,0,13.1,1.1,16.8,3.4c3.7,2.2,5.5,5.7,5.5,10.4c0,3.1-0.8,5.8-2.4,8
					c-1.6,2.2-3.7,3.6-6.3,4.2v0.4c3.4,0.9,5.9,2.4,7.5,4.6c1.5,2.1,2.3,4.9,2.3,8.2c0,5-1.9,9-5.7,11.9c-3.8,2.9-8.9,4.3-15.5,4.3
					h-21.6V35.5z M495.6,56.8h4.5c2.2,0,3.8-0.4,5-1.3c1.2-0.9,1.8-2.2,1.8-4c0-3.1-2.4-4.6-7.1-4.6h-4.2V56.8z M495.6,67.8v11.6
					h5.3c4.7,0,7-2,7-5.9c0-1.8-0.6-3.3-1.9-4.2c-1.2-1-3.1-1.5-5.4-1.5H495.6z"/>
			</g>
		</g>
	</g>
	<g class="st1">
		<g transform="translate(173.035319, 272.884708)">
			<g>
				<path class="st4" d="M513.5,91.7c-7.2,0-12.7-1.9-16.7-5.7c-3.9-3.8-5.9-9.2-5.9-16.2c0-7.3,1.8-12.8,5.5-16.7
					c3.7-3.9,8.9-5.8,15.7-5.8c6.5,0,11.5,1.7,15,5.1c3.5,3.4,5.3,8.2,5.3,14.6v6.6h-26.5c0.1,2.4,1,4.3,2.6,5.6
					c1.7,1.4,3.9,2,6.8,2c2.6,0,5-0.2,7.2-0.7c2.2-0.5,4.6-1.3,7.1-2.5v10.6c-2.3,1.2-4.7,2-7.2,2.5C519.9,91.5,517,91.7,513.5,91.7
					z M512.7,57.3c-1.7,0-3.2,0.6-4.4,1.6c-1.2,1.1-1.9,2.8-2.1,5.2h12.7c0-2.1-0.6-3.7-1.8-5C516.1,58,514.6,57.3,512.7,57.3z"/>
			</g>
		</g>
	</g>
	<g class="st1">
		<g transform="translate(209.035646, 272.884708)">
			<g>
				<path class="st4" d="M525.8,80c2,0,4.4-0.5,7.2-1.5v10.8c-2,0.9-3.9,1.5-5.7,1.8c-1.8,0.4-3.9,0.5-6.4,0.5
					c-5,0-8.6-1.2-10.8-3.6c-2.2-2.4-3.3-6.2-3.3-11.2V59.1h-5.2v-6l6.6-4.7l3.8-9h9.7V48h10.5v11.1h-10.5v16.7
					C521.8,78.6,523.2,80,525.8,80z"/>
			</g>
		</g>
	</g>
</g>
<g id="Layer_2" class="st0">
	<g class="st1">
		<path class="st5" d="M637.8,31.9c5.3,0.6,10.6,1.1,15.9,1.9C684,38,711,50,734.9,68.8c0.2,0.2,0.2,0.3,0.2,0.3
			c-9.9,9.9-19.8,19.6-29.5,29.4c-50-32.8-100.3-33.1-150.8-0.3c-9.7-9.7-19.6-19.6-30-30c8.5-5.3,16.8-11.2,25.6-16.1
			c16.1-9,33.5-14.7,51.8-17.8c6.6-1.1,13.2-1.6,19.8-2.4C627.3,31.9,632.6,31.9,637.8,31.9z"/>
		<path class="st5" d="M798.1,207.9c-0.6,5.4-1.1,10.8-1.9,16.2c-2.8,20.7-9.5,40.1-19.8,58.2c-4.5,7.9-9.8,15.2-14.7,22.8
			c-10.3-10.3-20.2-20.2-29.9-30c32.4-49.8,32.5-99.8,0.4-149.8c9.7-9.7,19.6-19.6,29.6-29.6c2.7,3.7,5.9,7.8,8.6,12
			c12.9,19.7,21.3,41.3,25.3,64.5c1.1,6.6,1.6,13.2,2.4,19.8C798.1,197.4,798.1,202.7,798.1,207.9z"/>
		<path class="st5" d="M528.2,124.8c-32.8,50-32.7,100.5,0.2,150.7c-9.6,9.6-19.5,19.5-29.3,29.3c-45.9-54.2-52.9-144.8-0.3-209.7
			C508.6,105.1,518.4,115,528.2,124.8z"/>
		<path class="st5" d="M705.1,301.3c10,10,19.8,19.8,29.6,29.6c-51,44.4-142.9,54.3-208.8,0.9c9.8-9.9,19.6-19.7,29.8-29.8
			c22,15.9,47.1,24.2,74.9,24.1C658.2,325.9,683.1,317.4,705.1,301.3z"/>
	</g>
	<path class="st6" d="M632.1,102.4c-53.3-1.3-97.8,40.5-99.9,94.5c-2,53.3,40.4,98.8,94.2,100.8c54.2,2.1,99.1-40.3,101.2-95.5
		C728.7,149,687.2,103.7,632.1,102.4z M584.2,218.8c-10.1-0.4-18-8.9-17.6-18.9c0.4-10.2,8.7-18,18.7-17.7
		c10.3,0.2,18.1,8.7,17.9,18.7C602.8,211.3,594.4,219.2,584.2,218.8z M629.7,218.8c-10.1-0.4-18-8.9-17.6-18.9
		c0.4-10.2,8.7-18,18.7-17.7c10.3,0.2,18.1,8.7,17.9,18.7C648.2,211.3,639.8,219.2,629.7,218.8z M674.4,218.8
		c-10.1-0.4-18-8.9-17.6-18.9c0.4-10.2,8.7-18,18.7-17.7c10.3,0.2,18.1,8.7,17.9,18.7C693,211.3,684.5,219.2,674.4,218.8z"/>
	<polygon class="st6" points="585,245.4 626.2,284.5 545.8,284.5 545.8,204.1 	"/>
</g>
<g id="Layer_3">
	<g>
		<path class="st5" d="M167.4,41.1c4.6,0.5,9.4,1,14,1.7c26.7,3.7,50.5,14.2,71.6,30.9c0.1,0.1,0.2,0.3,0.2,0.3
			c-8.8,8.7-17.5,17.3-26,25.9c-44.1-28.9-88.5-29.2-133-0.3C85.5,91,76.9,82.3,67.7,73.2c7.5-4.7,14.8-9.9,22.6-14.2
			c14.2-8,29.6-13,45.7-15.7c5.8-0.9,11.7-1.4,17.5-2.1C158.1,41.1,162.7,41.1,167.4,41.1z"/>
		<path class="st5" d="M308.7,196.3c-0.5,4.8-1,9.6-1.7,14.3c-2.5,18.3-8.4,35.4-17.5,51.3c-4,6.9-8.6,13.4-12.9,20.1
			c-9.1-9.1-17.8-17.8-26.3-26.4c28.6-43.9,28.7-88,0.3-132.1c8.6-8.6,17.3-17.3,26.1-26.1c2.4,3.3,5.2,6.9,7.6,10.6
			c11.4,17.4,18.8,36.4,22.3,56.9c0.9,5.8,1.4,11.7,2.1,17.5C308.7,187.1,308.7,191.7,308.7,196.3z"/>
		<path class="st5" d="M70.7,123c-28.9,44.1-28.8,88.6,0.1,133c-8.5,8.5-17.2,17.2-25.9,25.9C4.4,234.1-1.7,154.2,44.6,97
			C53.3,105.6,62,114.3,70.7,123z"/>
		<path class="st5" d="M226.7,278.6c8.8,8.8,17.5,17.5,26.1,26.1c-44.9,39.2-126,47.9-184.2,0.8c8.6-8.7,17.3-17.4,26.3-26.3
			c19.4,14,41.6,21.4,66,21.3C185.3,300.3,207.3,292.8,226.7,278.6z"/>
	</g>
	<path class="st5" d="M162.3,103.2c-47-1.1-86.3,35.7-88.1,83.4c-1.8,47,35.6,87.1,83.1,88.9c47.8,1.8,87.4-35.5,89.3-84.2
		C247.5,144.3,210.9,104.4,162.3,103.2z M120,205.9c-8.9-0.3-15.9-7.8-15.6-16.6c0.3-9,7.7-15.8,16.5-15.6c9.1,0.2,16,7.7,15.8,16.5
		C136.4,199.2,129,206.3,120,205.9z M160.1,205.9c-8.9-0.3-15.9-7.8-15.6-16.6c0.3-9,7.7-15.8,16.5-15.6c9.1,0.2,16,7.7,15.8,16.5
		C176.5,199.2,169.1,206.3,160.1,205.9z M199.6,205.9c-8.9-0.3-15.9-7.8-15.6-16.6c0.3-9,7.7-15.8,16.5-15.6
		c9.1,0.2,16,7.7,15.8,16.5C216,199.2,208.5,206.3,199.6,205.9z"/>
	<polygon class="st5" points="120.7,229.4 157.1,263.9 86.2,263.9 86.2,193 	"/>
	<g>
		<g>
			<path class="st4" d="M910.6,191c0.3,0.7,0.3,1.1,0.5,1.1c24.2,5.8,34.4,23.4,36.3,46.1c1.2,14.7,1.3,29.9-1,44.3
				c-4.4,27.4-21.9,42.7-51.5,47.5c-9.3,1.5-18.8,2.7-28.2,2.6c-37-0.4-74-1.5-111.1-2.1c-6.2-0.1-8-2.5-8-8.5
				c0.1-86.2,0.1-172.3,0-258.5c0-5.8,1.8-8.3,7.6-8.4c37.7-0.5,75.3-1.5,112.9-1.2c11,0.1,22.2,3,32.8,6.3
				c21,6.7,33.7,21.6,38.3,43.1c4,18.1,3.8,36.4-0.1,54.5C935.6,173.9,927.5,186.4,910.6,191z M784.7,300.3
				c22.5,0,44.2,0.1,65.9-0.1c9.6-0.1,19.4-0.3,29-1.3c18.1-2.1,28.5-10.9,30.9-26.9c1.3-8.6,1.8-17.7,0.7-26.3
				c-2.8-24.8-14.5-36.2-39.6-37.1c-28.2-1-56.3-0.6-84.5-0.7c-0.8,0-1.6,0.4-2.5,0.7C784.7,239,784.7,269.3,784.7,300.3z
				 M784.7,177.8c1.5,0.2,2.7,0.5,4,0.5c24.5-0.2,49.1-0.3,73.5-0.9c6.2-0.1,12.4-1.3,18.4-2.9c12.7-3.2,20.7-11.5,22.5-24.5
				c1.1-8.2,1.5-16.7,1.2-25.1c-1-22.6-12.1-36-34.5-37.7C842,85.3,814,86,786,85.5c-0.3,0-0.7,0.4-1.3,0.7
				C784.7,116.6,784.7,147.1,784.7,177.8z"/>
			<path class="st4" d="M460,244.7c-16.2,0-32.3,0.3-48.5-0.1c-5.1-0.1-6.9,1.8-8.2,6.4c-6.8,24.7-14,49.3-20.8,73.9
				c-1.3,4.9-3.6,6.7-8.6,6.4c-7.3-0.3-14.6-0.1-22-0.1c-7.6-0.1-8.6-1.3-6.5-9c5.4-19.3,10.8-38.5,16.2-57.8
				c16.3-58,32.5-116,49-173.9c1.9-6.6,4.3-13.1,7-19.4c4.2-9.8,11.9-16.4,22.6-17c13.9-0.8,27.9-0.7,41.8,0.1
				c11.6,0.7,19.6,7.9,23.2,18.8c4.9,14.7,9.2,29.5,13.3,44.5c18.5,67.9,36.9,135.8,55.3,203.7c2.5,9.2,2,10-7.7,10
				c-6.5,0-12.9-0.3-19.3,0.1c-5.7,0.3-8.4-1.5-9.8-7.3c-6.5-24.5-13.7-48.9-20.3-73.4c-1.2-4.4-2.9-6.2-7.7-6.1
				C492.6,244.9,476.3,244.7,460,244.7z M506.4,212.3c-1.8-7-3.4-13.5-5.1-19.9c-8.5-32-17-64-25.5-96c-1.8-6.6-5.1-11.1-12.7-11.6
				c-11-0.7-14,1.3-17.2,12.9c-9.6,34.8-19.1,69.6-28.8,104.5c-0.9,3.2-1.8,6.5-2.7,10.1C445.4,212.3,475.5,212.3,506.4,212.3z"/>
			<path class="st4" d="M1022.2,246.6c0.5,13.2,0.6,25.7,5.7,37.4c5.9,13.7,18.1,17.3,31.3,17.6c21.7,0.6,43.5,0.3,65.2,0.5
				c11.5,0.1,11.6,0,11.5,11.5c-0.1,15.5,2.6,16.4-15.4,17c-25.7,0.9-51.6,2.1-77.3,0.5c-31.2-1.9-46.9-16.7-52.3-47.4
				c-6.1-34.6-6.1-69.5-0.1-104.1c5.3-30.1,18.6-42.9,48.8-47.6c23-3.6,46.4-3.6,69.3,1.8c17.7,4.2,29.7,15.1,35.2,32.5
				c7.6,23.8,7.4,48.4,6.7,72.9c-0.1,2.4-3.6,5.5-6.3,6.7c-2.8,1.2-6.3,0.7-9.6,0.7c-34.8,0-69.7,0-104.6,0
				C1027.8,246.6,1025.3,246.6,1022.2,246.6z M1117.2,217.8c-1.5-11.6-2.4-22.4-4.4-33.1c-2.6-13.3-11.4-21.6-24.8-22.6
				c-12.9-1-26.1-0.7-39.1,0.4c-9.6,0.9-17.3,6.6-21.2,15.9c-5.3,12.5-5.6,25.8-5.7,39.4C1053.5,217.8,1084.4,217.8,1117.2,217.8z"
				/>
			<path class="st4" d="M1201.3,132c0-14.3,0.3-27.6-0.1-40.9c-0.1-5.9,2-8.6,7.7-9.6c6.3-1.1,12.5-3.1,18.8-4.5
				c7-1.6,8.6-0.4,8.6,6.8c0.1,14.4,0,28.8,0,43.3c0,1.3,0.1,2.6,0.3,5c4.2,0,8.4,0,12.6,0c8.2,0,16.4,0.1,24.5,0
				c4.5,0,6.7,2,6.6,6.6c-0.1,4.3-0.3,8.6,0.1,12.9c0.5,6.1-2,8.6-8.2,8.4c-9.7-0.3-19.3-0.1-29-0.1c-2.1,0-4.2,0.2-6.9,0.3
				c0,2.6,0,4.7,0,6.8c0,37.9,0,75.8,0,113.7c0,2.2,0,4.3,0.1,6.5c0.7,9.4,4.5,13.7,14,14.4c8.2,0.6,16.4,0.5,24.5,0.4
				c5.9-0.1,9,1.8,8.3,8.3c-0.4,3.8-0.3,7.7,0,11.6c0.5,5.7-2,9-7.4,9.1c-15.4,0.2-31,1.4-46.2-0.5c-17.7-2.4-26.6-14-28-32
				c-0.3-3.6-0.3-7.3-0.3-11c0-39.8,0-79.7,0-119.5c0-2.4,0-4.7,0-8.1c-6.6,0-12.7-0.1-18.9,0.1c-4.9,0.1-7.2-1.8-7-6.8
				c0.2-4.9,0.1-9.9,0-14.8c-0.1-4.4,2-6.3,6.2-6.3C1187.8,132.1,1194.1,132,1201.3,132z"/>
			<path class="st4" d="M608.7,246.7c0-24.3-0.1-48.7,0-73c0.1-25.3,12.3-39.3,37.3-42.7c19.1-2.6,38.3-1.1,57.2,1.8
				c8.5,1.3,9.5,3,9.6,11.5c0.1,17.9,0.9,16.1-15.9,16.2c-11.2,0.1-22.4-0.1-33.6,0.4c-15.1,0.8-19.9,6.1-19.9,21
				c-0.1,46.5,0,93.1,0,139.6c0,8.9-0.7,9.6-9.5,9.6c-5.4,0-10.8,0-16.2,0c-8-0.1-9-1.1-9-8.9C608.7,297.1,608.7,271.9,608.7,246.7z
				"/>
		</g>
	</g>
</g>
</svg>
